HIERARCHY
ROOT Hips
{
	OFFSET 0.000000 0.000000 0.000000
	CHANNELS 6 Xposition Yposition Zposition Zrotation Yrotation Xrotation 
	JOINT LHipJoint
	{
		OFFSET 0.000000 0.000000 0.000000
		CHANNELS 3 Zrotation Yrotation Xrotation
		JOINT LeftUpLeg
		{
			OFFSET 1.363060 -1.794630 0.839290
			CHANNELS 3 Zrotation Yrotation Xrotation
			JOINT LeftLeg
			{
				OFFSET 2.448110 -6.726130 0.000000
				CHANNELS 3 Zrotation Yrotation Xrotation
				JOINT LeftFoot
				{
					OFFSET 2.562200 -7.039590 0.000000
					CHANNELS 3 Zrotation Yrotation Xrotation
					JOINT LeftToeBase
					{
						OFFSET 0.157640 -0.433110 2.322550
						CHANNELS 3 Zrotation Yrotation Xrotation
						End Site
						{
							OFFSET 0.000000 0.000000 0.000000
						}
					}
				}
			}
		}
	}
	JOINT RHipJoint
	{
		OFFSET 0.000000 0.000000 0.000000
		CHANNELS 3 Zrotation Yrotation Xrotation
		JOINT RightUpLeg
		{
			OFFSET -1.305520 -1.794630 0.839290
			CHANNELS 3 Zrotation Yrotation Xrotation
			JOINT RightLeg
			{
				OFFSET -2.542530 -6.985550 0.000000
				CHANNELS 3 Zrotation Yrotation Xrotation
				JOINT RightFoot
				{
					OFFSET -2.568260 -7.056230 0.000000
					CHANNELS 3 Zrotation Yrotation Xrotation
					JOINT RightToeBase
					{
						OFFSET -0.164730 -0.452590 2.363150
						CHANNELS 3 Zrotation Yrotation Xrotation
						End Site
						{
							OFFSET 0.000000 0.000000 0.000000
						}
					}
				}
			}
		}
	}
	JOINT LowerBack
	{
		OFFSET 0.000000 0.000000 0.000000
		CHANNELS 3 Zrotation Yrotation Xrotation
		JOINT Spine
		{
			OFFSET 0.028270 2.035590 -0.193380
			CHANNELS 3 Zrotation Yrotation Xrotation
			JOINT Spine1
			{
				OFFSET 0.056720 2.048850 -0.042750
				CHANNELS 3 Zrotation Yrotation Xrotation
				JOINT Neck
				{
					OFFSET 0.000000 0.000000 0.000000
					CHANNELS 3 Zrotation Yrotation Xrotation
					JOINT Neck1
					{
						OFFSET -0.054170 1.746240 0.172020
						CHANNELS 3 Zrotation Yrotation Xrotation
						JOINT Head
						{
							OFFSET 0.104070 1.761360 -0.123970
							CHANNELS 3 Zrotation Yrotation Xrotation
							End Site
							{
								OFFSET 0.000000 0.000000 0.000000
							}
						}
					}
				}
				JOINT LeftShoulder
				{
					OFFSET 0.000000 0.000000 0.000000
					CHANNELS 3 Zrotation Yrotation Xrotation
					JOINT LeftArm
					{
						OFFSET 3.362410 1.200890 -0.311210
						CHANNELS 3 Zrotation Yrotation Xrotation
						JOINT LeftForeArm
						{
							OFFSET 4.983000 -0.000000 -0.000000
							CHANNELS 3 Zrotation Yrotation Xrotation
							JOINT LeftHand
							{
								OFFSET 3.483560 -0.000000 -0.000000
								CHANNELS 3 Zrotation Yrotation Xrotation
								JOINT LeftFingerBase
								{
									OFFSET 0.000000 0.000000 0.000000
									CHANNELS 3 Zrotation Yrotation Xrotation
									JOINT LeftHandIndex1
									{
										OFFSET 0.715260 -0.000000 -0.000000
										CHANNELS 3 Zrotation Yrotation Xrotation
										End Site
										{
											OFFSET 0.000000 0.000000 0.000000
										}
									}
								}
								JOINT LThumb
								{
									OFFSET 0.000000 0.000000 0.000000
									CHANNELS 3 Zrotation Yrotation Xrotation
									End Site
									{
										OFFSET 0.000000 0.000000 0.000000
									}
								}
							}
						}
					}
				}
				JOINT RightShoulder
				{
					OFFSET 0.000000 0.000000 0.000000
					CHANNELS 3 Zrotation Yrotation Xrotation
					JOINT RightArm
					{
						OFFSET -3.136600 1.374050 -0.404650
						CHANNELS 3 Zrotation Yrotation Xrotation
						JOINT RightForeArm
						{
							OFFSET -5.241900 -0.000000 -0.000000
							CHANNELS 3 Zrotation Yrotation Xrotation
							JOINT RightHand
							{
								OFFSET -3.444170 -0.000000 -0.000000
								CHANNELS 3 Zrotation Yrotation Xrotation
								JOINT RightFingerBase
								{
									OFFSET 0.000000 0.000000 0.000000
									CHANNELS 3 Zrotation Yrotation Xrotation
									JOINT RightHandIndex1
									{
										OFFSET -0.622530 -0.000000 -0.000000
										CHANNELS 3 Zrotation Yrotation Xrotation
										End Site
										{
											OFFSET 0.000000 0.000000 0.000000
										}
									}
								}
								JOINT RThumb
								{
									OFFSET 0.000000 0.000000 0.000000
									CHANNELS 3 Zrotation Yrotation Xrotation
									End Site
									{
										OFFSET 0.000000 0.000000 0.000000
									}
								}
							}
						}
					}
				}
			}
		}
	}
}
MOTION
Frames: 5
Frame Time: 0.008333
0.721046 17.954175 -4.668408 -5.207439 6.122092 1.950380 -4.415877 -2.229671 -0.588721 -2.536163 -2.042108 -23.325949 5.506452 14.802784 44.005278 -3.709906 15.468794 -1.487670 0.666200 -5.219700 -14.536200 3.869299 1.723777 0.668301 24.350947 -2.920163 -4.472752 -0.888480 -8.683210 22.943727 1.916751 -10.135931 -4.474028 -0.154200 2.530600 -6.974600 4.086162 -1.812789 5.374446 4.506494 -2.150246 -0.750589 2.228633 -1.053813 -2.183754 5.473561 3.072079 -15.629813 -1.163115 3.572511 16.981280 -3.619500 2.061100 10.760100 3.301071 -0.786559 0.136543 -74.164525 -11.800812 27.823086 32.151426 -42.365669 -11.733176 0.214390 0.302048 -4.920211 14.259606 -3.962531 -1.062300 -7.125000 0.000000 0.000000 -9.495000 25.577900 4.524000 -2.453333 1.419104 0.271147 67.685972 -7.916676 9.583596 -33.389202 42.842594 -12.702206 0.093186 -0.523078 -3.913026 -10.664142 4.909354 -1.029600 7.125000 0.000000 0.000000 11.853600 -24.438900 6.011300 
0.733769 17.951292 -4.548730 -5.361840 6.082374 1.878457 -4.441006 -2.268292 -0.667472 -2.506727 -2.289219 -23.843082 5.180086 14.497319 42.754356 -3.900260 16.066845 -1.610289 0.659100 -5.192600 -14.458800 3.880165 1.722598 0.708960 24.505128 -3.138665 -3.791702 -0.817630 -8.511991 22.425434 1.914890 -10.147150 -4.380518 -0.167900 2.639700 -7.277300 4.491808 -1.314736 5.347683 4.354179 -1.472001 -0.719853 1.797437 -0.717179 -2.176330 5.194573 2.762872 -15.643868 -0.908857 3.181997 16.992478 -3.524800 1.892600 10.719600 3.295755 -0.761566 0.135219 -73.669100 -11.394269 25.918173 32.337842 -42.510292 -11.844188 0.217103 0.305143 -4.943696 14.388181 -3.903374 -1.058200 -7.125000 0.000000 0.000000 -9.404800 25.632900 4.467700 -2.460352 1.429975 0.265072 67.392063 -7.359465 10.660971 -33.649338 43.050636 -12.869933 0.092720 -0.522865 -3.825257 -10.646690 5.010149 -1.046800 7.125000 0.000000 0.000000 11.857900 -24.339300 6.041600 
0.747188 17.948608 -4.428158 -5.524643 6.032699 1.815019 -4.468622 -2.306057 -0.743943 -2.470480 -2.536770 -24.322049 4.842184 14.168538 41.438576 -4.081563 16.628480 -1.667959 0.655300 -5.177800 -14.416400 3.891746 1.721326 0.747770 24.668804 -3.329355 -3.093256 -0.745095 -8.331510 21.880263 1.923191 -10.198759 -4.274809 -0.182800 2.754000 -7.594700 4.906946 -0.815608 5.322007 4.205191 -0.792107 -0.691063 1.366418 -0.380846 -2.158521 4.860418 2.432147 -15.699236 -0.610310 2.774554 17.024453 -3.405000 1.716700 10.694100 3.289415 -0.732278 0.132439 -73.187060 -10.999043 24.039815 32.535793 -42.664014 -11.963102 0.219950 0.308420 -5.038081 14.522263 -3.857720 -1.057500 -7.125000 0.000000 0.000000 -9.309900 25.674200 4.412400 -2.468035 1.444730 0.259397 67.111065 -6.790043 11.693742 -33.913885 43.260222 -13.041789 0.092545 -0.522887 -3.743315 -10.648114 5.092448 -1.062500 7.125000 0.000000 0.000000 11.849800 -24.257300 6.060200 
0.761203 17.946123 -4.306294 -5.678406 5.983341 1.757296 -4.500072 -2.343799 -0.818045 -2.444626 -2.787148 -24.761204 4.496341 13.818563 40.069231 -4.249634 17.142626 -1.655077 0.654300 -5.174000 -14.405400 3.904086 1.719307 0.785550 24.824086 -3.502152 -2.373254 -0.671357 -8.141590 21.307521 1.941796 -10.291737 -4.156291 -0.199700 2.877400 -7.937500 5.307833 -0.321586 5.292588 4.056939 -0.121409 -0.660556 0.946122 -0.048676 -2.123941 4.558580 2.125880 -15.758424 -0.339646 2.394499 17.027718 -3.297900 1.551300 10.664400 3.283600 -0.705355 0.129918 -72.718899 -10.617820 22.163540 32.732124 -42.815547 -12.080639 0.222029 0.311458 -5.130790 14.617961 -3.818314 -1.055300 -7.125000 0.000000 0.000000 -9.242700 25.710100 4.371900 -2.475666 1.456461 0.253726 66.846622 -6.166149 12.658043 -34.131113 43.432469 -13.182743 0.091738 -0.522363 -3.624776 -10.621402 5.205331 -1.080800 7.125000 0.000000 0.000000 11.860200 -24.146200 6.097000 
0.775616 17.942943 -4.183536 -5.849123 5.922806 1.704863 -4.531989 -2.380844 -0.889947 -2.399915 -3.021081 -25.169770 4.146817 13.448325 38.657089 -4.397029 17.584315 -1.572107 0.657600 -5.186700 -14.441800 3.916288 1.716611 0.821432 25.001283 -3.643422 -1.631079 -0.596436 -7.942387 20.707942 1.970294 -10.425023 -4.027094 -0.217200 3.000300 -8.279700 5.717448 0.171444 5.263684 3.916858 0.547696 -0.631802 0.531563 0.282755 -2.079666 4.267517 1.825309 -15.802055 -0.083688 2.020822 17.014159 -3.197300 1.387500 10.628700 3.277749 -0.680090 0.127388 -72.264593 -10.219148 20.311049 32.955157 -42.987565 -12.215710 0.223829 0.314371 -5.243933 14.700683 -3.793019 -1.055600 -7.125000 0.000000 0.000000 -9.184100 25.732000 4.338700 -2.483399 1.466374 0.248042 66.605389 -5.494652 13.550030 -34.294378 43.563482 -13.288490 0.089919 -0.521615 -3.480831 -10.599557 5.379120 -1.110800 7.125000 0.000000 0.000000 11.862900 -23.974700 6.146500 
